<?xml version="1.0" standalone="no"?>
<!DOCTYPE svg PUBLIC "-//W3C//DTD SVG 20010904//EN"
 "http://www.w3.org/TR/2001/REC-SVG-20010904/DTD/svg10.dtd">
<svg version="1.0" xmlns="http://www.w3.org/2000/svg"
 width="256.000000pt" height="256.000000pt" viewBox="0 0 256.000000 256.000000"
 preserveAspectRatio="xMidYMid meet">

<g transform="translate(0.000000,256.000000) scale(0.100000,-0.100000)"
fill="#000000" stroke="none">
<path d="M403 2279 c-49 -24 -109 -87 -129 -135 -12 -28 -14 -174 -14 -866 0
-940 -5 -875 80 -951 78 -71 21 -67 940 -67 923 0 869 -4 944 68 81 77 76 13
76 952 0 941 5 877 -78 952 -80 72 -23 68 -946 68 -822 0 -831 0 -873 -21z
m747 -134 c-24 -24 -48 -41 -53 -38 -6 3 -7 2 -4 -4 3 -5 -158 -173 -359 -374
l-365 -364 3 360 c3 331 5 363 22 391 21 35 48 54 91 65 17 4 183 7 370 8
l339 1 -44 -45z m967 21 c62 -38 63 -44 66 -439 1 -196 2 -357 2 -357 0 0
-185 185 -410 410 l-410 410 360 -2 c335 -3 362 -4 392 -22z m-639 -259 l192
-192 -195 -195 -195 -195 -195 195 -195 195 192 192 c106 106 195 193 198 193
3 0 92 -87 198 -193z m-3 -1247 l-195 -195 -195 195 -196 195 198 192 198 192
193 -192 192 -192 -195 -195z m-352 -288 c-43 -2 -206 -2 -363 0 -317 3 -332
6 -367 71 -16 29 -18 70 -20 397 l-3 365 415 -415 415 -415 -77 -3z m1065 465
c-4 -339 -6 -366 -24 -398 -39 -68 -47 -69 -449 -69 l-360 0 415 415 c228 228
417 415 419 415 2 0 2 -164 -1 -363z"/>
</g>
</svg>
